<?xml version="1.0" encoding="utf-8"?>
<!-- Generator: Adobe Illustrator 23.0.3, SVG Export Plug-In . SVG Version: 6.00 Build 0)  -->
<svg version="1.1" id="Capa_1" xmlns="http://www.w3.org/2000/svg" xmlns:xlink="http://www.w3.org/1999/xlink" x="0px" y="0px"
	 viewBox="0 0 327.78 94.97" style="enable-background:new 0 0 327.78 94.97;" xml:space="preserve">
<style type="text/css">
	.st0{clip-path:url(#SVGID_2_);fill:#211F20;}
</style>
<g>
	<defs>
		<rect id="SVGID_1_" y="0" width="327.78" height="94.97"/>
	</defs>
	<clipPath id="SVGID_2_">
		<use xlink:href="#SVGID_1_"  style="overflow:visible;"/>
	</clipPath>
	<path class="st0" d="M107.96,41.19c1.52,0,3.24-0.23,5.15-0.69l-0.47-2.72c-1.43,0.29-2.76,0.44-3.99,0.44
		c-5.1,0-7.66-3.27-7.66-9.8c0-3.41,0.62-5.83,1.87-7.26c1.25-1.43,2.98-2.14,5.21-2.14c1.23,0,2.66,0.18,4.28,0.54l0.65-2.72
		c-2.01-0.56-3.83-0.83-5.48-0.83c-3.12,0-5.57,1.01-7.35,3.01c-1.78,2.01-2.67,5.19-2.67,9.54
		C97.5,36.98,100.99,41.19,107.96,41.19"/>
	<path class="st0" d="M138.51,41.19c1.45,0,2.67-0.24,3.66-0.72l-0.54-2.4c-0.75,0.24-1.46,0.36-2.14,0.36
		c-0.87,0-1.31-0.47-1.31-1.42v-21.7h-3.3v21.74C134.88,39.81,136.09,41.19,138.51,41.19"/>
	<path class="st0" d="M151.64,41.19c2.06,0,3.96-0.49,5.7-1.49l-0.83-2.25c-1.5,0.68-3.09,1.01-4.77,1.01
		c-1.68,0-2.95-0.64-3.79-1.92c-0.85-1.28-1.29-2.95-1.34-5.01h10.67c0.36-1.33,0.54-2.42,0.54-3.27c0-1.89-0.54-3.4-1.61-4.55
		S153.55,22,151.5,22c-2.44,0-4.37,0.88-5.77,2.63c-1.4,1.75-2.11,4.03-2.11,6.82c0,2.79,0.66,5.12,1.98,6.97
		C146.92,40.27,148.93,41.19,151.64,41.19 M148.05,26.42c0.34-0.51,0.82-0.92,1.43-1.25c0.62-0.33,1.4-0.49,2.34-0.49
		c0.94,0,1.68,0.38,2.21,1.13c0.53,0.75,0.8,1.78,0.8,3.08v0.29l-7.87-0.07C147.11,28.29,147.47,27.39,148.05,26.42"/>
	<path class="st0" d="M276.79,44.57c0,1.5,0.63,2.66,1.89,3.48c1.26,0.82,3.09,1.23,5.5,1.23s4.39-0.59,5.95-1.78
		c1.56-1.19,2.34-2.76,2.34-4.72c0-1.38-0.48-2.46-1.45-3.25c-0.97-0.79-2.32-1.18-4.07-1.18h-3.34c-1.28,0-1.92-0.41-1.92-1.23
		c0-0.56,0.19-1.26,0.58-2.1c0.61,0.12,1.22,0.18,1.85,0.18c2.1-0.02,3.71-0.65,4.83-1.87c1.11-1.22,1.67-2.75,1.67-4.59
		c0-1.84-0.46-3.31-1.38-4.43c1.62-0.22,2.89-0.42,3.81-0.62l-0.4-2.03c-1.94,0.34-3.81,0.51-5.62,0.51L283.98,22
		c-2.13,0-3.74,0.61-4.83,1.83c-1.09,1.22-1.63,2.81-1.63,4.77c0,1.28,0.27,2.44,0.8,3.46c0.53,1.03,1.29,1.82,2.29,2.38
		c-0.95,1.21-1.42,2.31-1.42,3.3s0.31,1.74,0.94,2.25C277.91,41.15,276.79,42.68,276.79,44.57 M280.53,28.56
		c0-2.71,1.19-4.06,3.56-4.06c1.26,0,2.16,0.33,2.7,1c0.54,0.67,0.82,1.7,0.82,3.1c0,2.68-1.18,4.03-3.54,4.03
		C281.71,32.63,280.53,31.27,280.53,28.56 M281.8,41.19h4.46c1.21,0,2.04,0.15,2.5,0.45c0.46,0.3,0.69,0.78,0.69,1.43
		c0,1.11-0.45,1.99-1.34,2.63c-0.9,0.64-2.1,0.96-3.61,0.96c-1.51,0-2.68-0.21-3.5-0.63c-0.82-0.42-1.23-1.06-1.23-1.9
		C279.77,42.75,280.45,41.77,281.8,41.19"/>
	<path class="st0" d="M306.03,19.2c0.6,0,1.12-0.22,1.54-0.67c0.42-0.45,0.63-0.97,0.63-1.58c0-0.6-0.21-1.12-0.63-1.54
		c-0.43-0.42-0.94-0.63-1.54-0.63c-0.61,0-1.13,0.21-1.56,0.63c-0.44,0.42-0.65,0.94-0.65,1.54c0,0.61,0.22,1.13,0.65,1.58
		C304.9,18.98,305.42,19.2,306.03,19.2"/>
	<path class="st0" d="M321.61,41.19c2.06,0,3.96-0.49,5.7-1.49l-0.83-2.25c-1.5,0.68-3.09,1.01-4.77,1.01
		c-1.68,0-2.95-0.64-3.79-1.92c-0.85-1.28-1.3-2.95-1.34-5.01h10.67c0.36-1.33,0.54-2.42,0.54-3.27c0-1.89-0.54-3.4-1.61-4.55
		c-1.08-1.15-2.64-1.72-4.7-1.72c-2.44,0-4.37,0.88-5.77,2.63c-1.4,1.75-2.11,4.03-2.11,6.82c0,2.79,0.66,5.12,1.98,6.97
		C316.88,40.27,318.9,41.19,321.61,41.19 M318.02,26.42c0.34-0.51,0.82-0.92,1.43-1.25c0.62-0.33,1.4-0.49,2.34-0.49
		c0.95,0,1.68,0.38,2.22,1.13c0.53,0.75,0.8,1.78,0.8,3.08v0.29l-7.87-0.07C317.07,28.29,317.44,27.39,318.02,26.42"/>
	<path class="st0" d="M252.74,19.2c0.6,0,1.12-0.22,1.54-0.67c0.42-0.45,0.63-0.97,0.63-1.58c0-0.6-0.21-1.12-0.63-1.54
		c-0.42-0.42-0.94-0.63-1.54-0.63c-0.61,0-1.13,0.21-1.56,0.63c-0.43,0.42-0.65,0.94-0.65,1.54c0,0.61,0.22,1.13,0.65,1.58
		C251.61,18.98,252.13,19.2,252.74,19.2"/>
	<path class="st0" d="M299.68,19.2c0.6,0,1.12-0.22,1.54-0.67c0.42-0.45,0.63-0.97,0.63-1.58c0-0.6-0.21-1.12-0.63-1.54
		c-0.42-0.42-0.94-0.63-1.54-0.63c-0.6,0-1.12,0.21-1.56,0.63c-0.43,0.42-0.65,0.94-0.65,1.54c0,0.61,0.22,1.13,0.65,1.58
		C298.56,18.98,299.08,19.2,299.68,19.2"/>
	<polygon class="st0" points="251.18,40.72 254.48,40.72 254.48,22.18 251.18,22.5 	"/>
	<path class="st0" d="M194.17,41.19c2.27,0,4.11-0.77,5.51-2.32c1.4-1.55,2.1-3.98,2.1-7.31c0-3.33-0.67-5.75-2.01-7.27
		c-1.34-1.52-3.15-2.29-5.43-2.29c-2.27,0-4.12,0.77-5.53,2.32c-1.41,1.55-2.12,3.99-2.12,7.31c0,3.33,0.68,5.75,2.03,7.28
		C190.08,40.43,191.9,41.19,194.17,41.19 M194.28,24.68c1.35,0,2.39,0.49,3.1,1.47c0.71,0.98,1.07,2.74,1.07,5.28
		c0,2.54-0.41,4.35-1.23,5.44s-1.82,1.63-2.98,1.63c-2.81,0-4.21-2.31-4.21-6.91S191.45,24.68,194.28,24.68"/>
	<path class="st0" d="M160.35,44.57c0,1.5,0.63,2.66,1.89,3.48c1.26,0.82,3.09,1.23,5.5,1.23c2.41,0,4.39-0.59,5.95-1.78
		c1.56-1.19,2.34-2.76,2.34-4.72c0-1.38-0.49-2.46-1.45-3.25c-0.97-0.79-2.32-1.18-4.06-1.18h-3.34c-1.28,0-1.92-0.41-1.92-1.23
		c0-0.56,0.19-1.26,0.58-2.1c0.61,0.12,1.22,0.18,1.85,0.18c2.1-0.02,3.71-0.65,4.83-1.87c1.11-1.22,1.67-2.75,1.67-4.59
		c0-1.84-0.46-3.31-1.38-4.43c1.62-0.22,2.89-0.42,3.81-0.62l-0.4-2.03c-1.94,0.34-3.81,0.51-5.63,0.51L167.54,22
		c-2.13,0-3.74,0.61-4.83,1.83c-1.09,1.22-1.63,2.81-1.63,4.77c0,1.28,0.27,2.44,0.8,3.46c0.53,1.03,1.29,1.82,2.29,2.38
		c-0.94,1.21-1.42,2.31-1.42,3.3s0.32,1.74,0.94,2.25C161.46,41.15,160.35,42.68,160.35,44.57 M164.09,28.56
		c0-2.71,1.19-4.06,3.56-4.06c1.26,0,2.16,0.33,2.7,1c0.54,0.67,0.82,1.7,0.82,3.1c0,2.68-1.18,4.03-3.54,4.03
		C165.27,32.63,164.09,31.27,164.09,28.56 M165.36,41.19h4.46c1.21,0,2.04,0.15,2.5,0.45s0.69,0.78,0.69,1.43
		c0,1.11-0.45,1.99-1.34,2.63c-0.9,0.64-2.1,0.96-3.61,0.96c-1.51,0-2.68-0.21-3.5-0.63c-0.82-0.42-1.23-1.06-1.23-1.9
		C163.33,42.75,164.01,41.77,165.36,41.19"/>
	<path class="st0" d="M245.22,41.19c1.45,0,2.67-0.24,3.66-0.72l-0.54-2.4c-0.75,0.24-1.46,0.36-2.14,0.36
		c-0.87,0-1.31-0.47-1.31-1.42v-21.7h-3.3v21.74C241.6,39.81,242.81,41.19,245.22,41.19"/>
	<polygon class="st0" points="121.73,87.84 128.12,87.84 128.12,63.94 121.73,64.48 	"/>
	<polygon class="st0" points="262.4,87.84 268.78,87.84 268.78,63.94 262.4,64.48 	"/>
	<polygon class="st0" points="247.34,80.54 241.04,57.37 234.57,57.37 244.15,87.84 250.58,87.84 260.16,57.37 253.68,57.37 	"/>
	<path class="st0" d="M225.05,27.48c1.86-0.99,2.79-2.61,2.79-4.86c0-3.92-2.1-5.95-6.31-6.1c-0.65-0.02-1.69-0.04-3.12-0.04h-4.46
		v24.24h7.37c2.66,0,4.66-0.63,5.99-1.89c1.33-1.26,2-2.99,2-5.19c0-1.57-0.32-2.85-0.96-3.83
		C227.69,28.84,226.6,28.06,225.05,27.48 M217.43,19.09h1.71c1.3,0,2.34,0.07,3.12,0.22c0.51,0.12,0.89,0.3,1.14,0.54
		c0.25,0.24,0.47,0.58,0.65,1.02c0.18,0.43,0.27,1.11,0.27,2.01c0,0.91-0.29,1.69-0.87,2.36c-0.58,0.67-1.4,1.03-2.47,1.11h-3.56
		V19.09z M220.62,37.78h-3.19v-8.74h2.76c1.98,0,3.36,0.39,4.14,1.16c0.97,0.75,1.45,1.85,1.45,3.3
		C225.78,36.35,224.06,37.78,220.62,37.78"/>
	<polygon class="st0" points="236.66,22.18 233.36,22.5 233.36,40.72 236.66,40.72 	"/>
	<path class="st0" d="M234.92,19.2c0.6,0,1.12-0.22,1.54-0.67c0.42-0.45,0.63-0.97,0.63-1.58c0-0.6-0.21-1.12-0.63-1.54
		c-0.42-0.42-0.94-0.63-1.54-0.63c-0.6,0-1.12,0.21-1.56,0.63c-0.43,0.42-0.65,0.94-0.65,1.54c0,0.61,0.22,1.13,0.65,1.58
		C233.8,18.98,234.32,19.2,234.92,19.2"/>
	<path class="st0" d="M273.38,40.72V28.13c0-1.93-0.36-3.44-1.07-4.52c-0.72-1.08-1.98-1.62-3.79-1.62c-1.07,0-2.17,0.27-3.32,0.8
		c-1.15,0.53-2.06,1.12-2.74,1.78l-0.36-2.21h-2.72v18.36h3.27V27.19c0.58-0.68,1.38-1.25,2.41-1.72c1.03-0.47,1.98-0.71,2.87-0.71
		c0.88,0,1.47,0.31,1.76,0.94c0.29,0.63,0.43,1.5,0.43,2.61v12.41H273.38z"/>
	<path class="st0" d="M265.54,53.21c-1.04,0-1.92,0.37-2.65,1.1c-0.73,0.73-1.1,1.61-1.1,2.65s0.37,1.92,1.1,2.67
		c0.73,0.74,1.61,1.12,2.65,1.12c1.03,0,1.92-0.38,2.65-1.14c0.73-0.76,1.1-1.65,1.1-2.67c0-1.02-0.37-1.89-1.1-2.62
		C267.46,53.58,266.58,53.21,265.54,53.21"/>
	<path class="st0" d="M325.22,83.56c-0.76,0-1.14-0.43-1.14-1.28V72.7c0-3.19-0.66-5.45-1.99-6.77c-1.32-1.32-3.54-1.98-6.64-1.98
		c-1.16,0-2.55,0.17-4.17,0.53c-1.63,0.35-3,0.86-4.13,1.53l1.32,4.01c1.92-0.64,3.64-0.96,5.18-0.96c1.54,0,2.62,0.23,3.26,0.69
		c0.64,0.45,0.96,1.47,0.96,3.06v2.23c-1.1-0.09-2.55-0.14-4.36-0.14c-1.81,0-3.55,0.39-5.22,1.19c-0.91,0.46-1.66,1.17-2.23,2.14
		c-0.58,0.97-0.87,2.14-0.87,3.51c0,2.07,0.61,3.7,1.83,4.9c1.22,1.2,3.01,1.8,5.38,1.8c2.37,0,4.44-0.73,6.2-2.19
		c0.88,1.4,2.25,2.1,4.08,2.1c1.84,0,3.54-0.43,5.09-1.28l-0.87-3.79C326.18,83.46,325.62,83.56,325.22,83.56 M317.88,83.01
		c-1.22,0.79-2.46,1.19-3.74,1.19c-2.01,0-3.01-1.05-3.01-3.15c0-1.94,1.51-2.92,4.52-2.92c0.64,0,1.38,0.03,2.24,0.09V83.01z"/>
	<path class="st0" d="M306.91,41.05h2.65V22.47h-3.27v14.23c-0.58,0.53-1.32,0.95-2.23,1.25c-0.91,0.3-1.84,0.45-2.79,0.45
		c-0.96,0-1.59-0.28-1.9-0.85c-0.31-0.57-0.47-1.46-0.47-2.67V22.36h-3.26v12.59c0,2.01,0.39,3.55,1.16,4.63
		c0.77,1.08,2.15,1.61,4.14,1.61c1.02,0,2.03-0.21,3.05-0.62c1.02-0.41,1.88-0.91,2.58-1.49L306.91,41.05z"/>
	<path class="st0" d="M290.23,82.6c-1.82,0.7-3.66,1.05-5.52,1.05c-3.95,0-5.96-2.28-6.02-6.84h12.37c0.39-1.52,0.59-3.04,0.59-4.56
		c0-2.58-0.74-4.6-2.21-6.04c-1.48-1.44-3.57-2.17-6.27-2.17c-3.38,0-5.96,1.11-7.76,3.33c-1.8,2.22-2.69,5-2.69,8.35
		c0,8.49,3.61,12.73,10.81,12.73c2.86,0,5.46-0.5,7.8-1.51L290.23,82.6z M283.34,68.54c2.13,0,3.19,1.51,3.19,4.52v0.27h-7.8
		C279.25,70.14,280.78,68.54,283.34,68.54"/>
	<path class="st0" d="M295.52,85.11c0,2.34-0.45,4.04-1.35,5.11c-0.9,1.06-2.43,1.78-4.59,2.14l-0.27,2.61
		c7.85-0.4,12.54-2,12.54-9.45V64.03l-6.34,0.64V85.11z"/>
	<path class="st0" d="M298.67,53.08c-1.07,0-1.97,0.37-2.72,1.12c-0.74,0.75-1.12,1.65-1.12,2.72c0,1.07,0.37,1.98,1.12,2.74
		c0.75,0.76,1.65,1.14,2.72,1.14c1.06,0,1.97-0.39,2.71-1.16c0.74-0.78,1.12-1.69,1.12-2.74c0-1.05-0.37-1.95-1.12-2.69
		C300.64,53.45,299.73,53.08,298.67,53.08"/>
	<path class="st0" d="M218.46,64.85c-1.03-0.55-2.39-0.82-4.06-0.82c-6.6,0-9.9,4.23-9.9,12.68c0,3.56,0.73,6.37,2.19,8.44
		c1.46,2.07,3.62,3.1,6.48,3.1c2.34,0,4.36-0.61,6.07-1.83l0.36,1.74h5.29V55.45h-6.43V64.85z M218.5,82.41
		c-1.13,0.7-2.39,1.05-3.79,1.05c-2.74,0-4.11-2.3-4.11-6.89c0-5.02,1.48-7.53,4.43-7.53c1.31,0,2.46,0.21,3.47,0.64V82.41z"/>
	<path class="st0" d="M112.11,62.07c1.49,0,3.1,0.17,4.84,0.5l1.05-4.7c-2.31-0.67-4.61-1-6.89-1c-3.62,0-6.71,1.08-9.26,3.24
		c-1.37,1.16-2.45,2.79-3.24,4.91c-0.79,2.11-1.19,4.62-1.19,7.51c0,5.84,1.35,10.02,4.06,12.55c1.28,1.19,2.67,2.05,4.18,2.58
		c1.51,0.53,3.28,0.8,5.34,0.8s4.28-0.27,6.68-0.82l-0.41-4.97c-1.46,0.24-3.09,0.36-4.88,0.36c-2.59,0-4.61-0.8-6.07-2.39
		c-1.46-1.6-2.19-4.32-2.19-8.17c0-3.85,0.71-6.54,2.14-8.08C107.7,62.83,109.64,62.07,112.11,62.07"/>
	<path class="st0" d="M123.27,22c-2.27,0-4.12,0.77-5.53,2.32c-1.42,1.55-2.12,3.99-2.12,7.31c0,3.33,0.68,5.75,2.03,7.28
		c1.35,1.52,3.17,2.28,5.44,2.28c2.27,0,4.11-0.77,5.52-2.32c1.4-1.55,2.1-3.99,2.1-7.31c0-3.33-0.67-5.75-2.01-7.28
		C127.35,22.76,125.54,22,123.27,22 M126.14,36.87c-0.82,1.09-1.82,1.63-2.98,1.63c-2.81,0-4.21-2.31-4.21-6.91s1.42-6.91,4.25-6.91
		c1.35,0,2.39,0.49,3.1,1.47c0.71,0.98,1.07,2.74,1.07,5.28C127.37,33.97,126.96,35.78,126.14,36.87"/>
	<path class="st0" d="M124.88,53.21c-1.04,0-1.92,0.37-2.65,1.1c-0.73,0.73-1.1,1.61-1.1,2.65s0.36,1.92,1.1,2.67
		c0.73,0.74,1.61,1.12,2.65,1.12c1.03,0,1.92-0.38,2.65-1.14c0.73-0.76,1.09-1.65,1.09-2.67c0-1.02-0.37-1.89-1.09-2.62
		C126.8,53.58,125.91,53.21,124.88,53.21"/>
	<path class="st0" d="M146.51,81.82c-1.25,0.94-2.59,1.41-4.04,1.41c-1.45,0-2.35-0.32-2.72-0.96c-0.36-0.64-0.55-1.57-0.55-2.78
		V64.44h-6.39v16.2c0,2.49,0.48,4.42,1.44,5.77c0.96,1.35,2.75,2.03,5.38,2.03c2.63,0,5.12-0.91,7.46-2.74l0.55,2.74h5.25v-24h-6.39
		V81.82z"/>
	<polygon class="st0" points="182.6,22.18 179.29,22.5 179.29,40.72 182.6,40.72 	"/>
	<path class="st0" d="M200.66,83.56c-0.76,0-1.14-0.43-1.14-1.28V72.7c0-3.19-0.66-5.45-1.99-6.77c-1.32-1.32-3.54-1.98-6.64-1.98
		c-1.16,0-2.55,0.17-4.17,0.53c-1.63,0.35-3,0.86-4.13,1.53l1.32,4.01c1.92-0.64,3.64-0.96,5.18-0.96c1.54,0,2.62,0.23,3.26,0.69
		c0.64,0.45,0.96,1.47,0.96,3.06v2.23c-1.1-0.09-2.55-0.14-4.36-0.14c-1.81,0-3.55,0.39-5.22,1.19c-0.91,0.46-1.66,1.17-2.23,2.14
		c-0.58,0.97-0.87,2.14-0.87,3.51c0,2.07,0.61,3.7,1.82,4.9c1.22,1.2,3.01,1.8,5.38,1.8c2.37,0,4.44-0.73,6.2-2.19
		c0.88,1.4,2.25,2.1,4.08,2.1c1.84,0,3.54-0.43,5.09-1.28l-0.87-3.79C201.62,83.46,201.06,83.56,200.66,83.56 M193.32,83.01
		c-1.22,0.79-2.46,1.19-3.74,1.19c-2.01,0-3.01-1.05-3.01-3.15c0-1.94,1.51-2.92,4.52-2.92c0.64,0,1.38,0.03,2.24,0.09V83.01z"/>
	<path class="st0" d="M180.86,19.2c0.6,0,1.12-0.22,1.54-0.67c0.42-0.45,0.64-0.97,0.64-1.58c0-0.6-0.21-1.12-0.64-1.54
		c-0.42-0.42-0.94-0.63-1.54-0.63c-0.61,0-1.13,0.21-1.56,0.63c-0.44,0.42-0.65,0.94-0.65,1.54c0,0.61,0.22,1.13,0.65,1.58
		C179.73,18.98,180.25,19.2,180.86,19.2"/>
	<path class="st0" d="M170.82,64.85c-1.03-0.55-2.39-0.82-4.06-0.82c-6.6,0-9.9,4.23-9.9,12.68c0,3.56,0.73,6.37,2.19,8.44
		c1.46,2.07,3.62,3.1,6.48,3.1c2.34,0,4.36-0.61,6.07-1.83l0.36,1.74h5.29V55.45h-6.43V64.85z M170.87,82.41
		c-1.13,0.7-2.39,1.05-3.79,1.05c-2.74,0-4.11-2.3-4.11-6.89c0-5.02,1.47-7.53,4.43-7.53c1.31,0,2.46,0.21,3.47,0.64V82.41z"/>
	<path class="st0" d="M25.14,77.45l0.42-30.29h26.56l0.42,29.97v3.91v5.4c1.02-0.11,3.2-1.19,4.17-2.66
		c6.41-9.75,13.63-8.93,13.75-8.93c0.47,0,0.92,0.04,1.34,0.09l-1.76-46.57H7.8L5.91,81.42c2.34-2.09,7.69-6.94,12.54-6.85
		C20.22,74.61,22.75,75.11,25.14,77.45 M58.78,34.58h5.34l1.28,36.23h-6.09L58.78,34.58z M12.49,70.81l1.3-36.28h5.11l-0.45,36.28
		H12.49z"/>
	<path class="st0" d="M67.86,14.63c0,0,0.87-14.63-29.01-14.63C8.97,0,10.18,14.63,10.18,14.63H67.86z M36.36,8.62
		c0,0,0.23-2.84,2.59-2.84s2.51,2.75,2.51,2.75v4.05h-5.1V8.62z"/>
	<path class="st0" d="M30.3,57.78c0,0,2.82-3.54,8.44-3.54s8.8,3.54,8.8,3.54l-0.21-5.92H30.51L30.3,57.78z"/>
	<path class="st0" d="M22.85,85.83c-0.38,0.66-0.21,2.88,2.29,2.88V84C25.14,84,23.7,84.37,22.85,85.83"/>
	<path class="st0" d="M71.55,84.93c0.24-3.45,5.12-4.91,5.12-4.91s-8.58-4.86-17.99,7.57c-1.44,1.99-3.11,2.81-3.11,2.81
		s-4.63,2.88-9.34-1.65c-2.98-3.02,0.18-6.25,0.18-6.25s1.81-2.18,2.91-2.37c-3.6-3.16-9.24-0.9-9.24-0.9s-5.56,1.61-8.48,8.19
		c-1.18,2.95-4.33,3.78-4.33,3.78s-7.86,2.24-8.65-4.77c-0.28-2.45,2.94-5.24,4.61-5.08c-2.97-3.25-6.96-1.57-6.96-1.57
		S8.99,82.85,0,94.05l78.69,0.06C78.69,94.11,71.34,87.92,71.55,84.93"/>
	<polygon class="st0" points="11.87,19.17 11.66,19.17 11.66,23.83 66.17,23.83 66.17,19.17 65.96,19.17 12.55,19.17 	"/>
</g>
</svg>
