<?xml version="1.0" encoding="utf-8"?>
<!-- Generator: Adobe Illustrator 23.0.3, SVG Export Plug-In . SVG Version: 6.00 Build 0)  -->
<svg version="1.1" id="Capa_1" xmlns="http://www.w3.org/2000/svg" xmlns:xlink="http://www.w3.org/1999/xlink" x="0px" y="0px"
	 viewBox="0 0 255.94 427.64" style="enable-background:new 0 0 255.94 427.64;" xml:space="preserve">
<style type="text/css">
	.st0{clip-path:url(#SVGID_2_);fill:#211F20;}
</style>
<g>
	<defs>
		<rect id="SVGID_1_" width="255.94" height="427.64"/>
	</defs>
	<clipPath id="SVGID_2_">
		<use xlink:href="#SVGID_1_"  style="overflow:visible;"/>
	</clipPath>
	<path class="st0" d="M81.76,251.89l1.36-98.51h86.39l1.36,97.47v12.71v17.55c3.32-0.37,10.41-3.87,13.55-8.64
		c20.85-31.71,44.32-29.04,44.74-29.04c1.54,0,2.98,0.12,4.35,0.3l-5.74-151.45H25.37l-6.15,172.55c7.6-6.8,25-22.56,40.79-22.26
		C65.75,242.67,74.01,244.3,81.76,251.89 M191.17,112.46h17.39l4.16,117.83h-19.8L191.17,112.46z M40.62,230.29l4.23-117.99h16.62
		l-1.47,117.99H40.62z"/>
	<path class="st0" d="M220.72,47.59c0,0,2.82-47.59-94.36-47.59C29.19,0,33.1,47.59,33.1,47.59H220.72z M118.27,28.02
		c0,0,0.73-9.23,8.44-9.23c7.71,0,8.17,8.95,8.17,8.95v13.17h-16.6V28.02z"/>
	<path class="st0" d="M98.54,187.93c0,0,9.18-11.51,27.44-11.51c18.26,0,28.61,11.51,28.61,11.51l-0.68-19.26H99.22L98.54,187.93z"
		/>
	<path class="st0" d="M74.33,279.14c-1.25,2.14-0.67,9.36,7.44,9.36v-15.31C81.76,273.19,77.09,274.39,74.33,279.14"/>
	<path class="st0" d="M232.71,276.24c0.8-11.23,16.64-15.97,16.64-15.97s-27.89-15.81-58.52,24.61c-4.69,6.49-10.1,9.14-10.1,9.14
		s-15.06,9.35-30.37-5.36c-9.69-9.81,0.6-20.34,0.6-20.34s5.87-7.1,9.47-7.71c-11.72-10.29-30.07-2.92-30.07-2.92
		s-18.09,5.23-27.57,26.63c-3.84,9.59-14.09,12.28-14.09,12.28s-25.56,7.28-28.14-15.51c-0.9-7.96,9.57-17.03,14.99-16.52
		c-9.65-10.58-22.65-5.1-22.65-5.1S29.22,269.44,0,305.9l255.94,0.18C255.94,306.08,232.02,285.96,232.71,276.24"/>
	<polygon class="st0" points="38.6,62.36 37.92,62.36 37.92,77.49 215.22,77.49 215.22,62.36 214.54,62.36 40.82,62.36 	"/>
	<path class="st0" d="M13.02,361.89c-7.7,0-11.55-4.65-11.55-13.95c0-4.81,0.98-8.33,2.95-10.55c1.96-2.22,4.67-3.33,8.12-3.33
		c1.82,0,3.84,0.31,6.06,0.92l-0.72,3.01c-1.79-0.4-3.37-0.6-4.73-0.6c-2.46,0-4.38,0.79-5.76,2.37c-1.38,1.58-2.06,4.25-2.06,8.02
		c0,7.22,2.82,10.83,8.46,10.83c1.36,0,2.84-0.16,4.41-0.48l0.52,3.01C16.6,361.64,14.7,361.89,13.02,361.89"/>
	<path class="st0" d="M35.84,359.32c-1.55,1.71-3.58,2.56-6.09,2.56c-2.52,0-4.52-0.84-6.02-2.52c-1.5-1.68-2.24-4.36-2.24-8.04
		c0-3.68,0.78-6.37,2.35-8.08c1.56-1.71,3.6-2.57,6.11-2.57s4.51,0.84,5.99,2.53c1.49,1.68,2.23,4.37,2.23,8.04
		C38.16,354.92,37.39,357.61,35.84,359.32 M29.86,343.64c-3.13,0-4.69,2.55-4.69,7.64c0,5.09,1.55,7.64,4.65,7.64
		c1.28,0,2.38-0.6,3.29-1.8c0.91-1.2,1.36-3.21,1.36-6.02c0-2.81-0.39-4.75-1.18-5.83C32.5,344.18,31.36,343.64,29.86,343.64"/>
	<path class="st0" d="M42.77,333.3h3.65v23.98c0,1.04,0.48,1.57,1.44,1.57c0.75,0,1.54-0.13,2.37-0.4l0.6,2.65
		c-1.1,0.54-2.45,0.8-4.05,0.8c-2.68,0-4.01-1.52-4.01-4.57V333.3z"/>
	<path class="st0" d="M61.3,361.89c-2.99,0-5.22-1.02-6.68-3.07c-1.46-2.04-2.18-4.61-2.18-7.7c0-3.09,0.77-5.6,2.33-7.54
		c1.55-1.94,3.68-2.91,6.38-2.91c2.27,0,4,0.64,5.19,1.9c1.19,1.27,1.78,2.95,1.78,5.03c0,0.94-0.2,2.14-0.6,3.61H55.72
		c0.05,2.27,0.55,4.12,1.48,5.53c0.94,1.42,2.33,2.12,4.19,2.12c1.86,0,3.62-0.37,5.27-1.12l0.92,2.49
		C65.67,361.34,63.57,361.89,61.3,361.89 M64.83,348.3c0-1.44-0.3-2.58-0.88-3.41c-0.59-0.83-1.4-1.24-2.44-1.24
		c-1.04,0-1.91,0.18-2.59,0.54c-0.68,0.36-1.21,0.82-1.58,1.38c-0.64,1.07-1.05,2.06-1.2,2.97l8.7,0.08V348.3z"/>
	<path class="st0" d="M78.86,340.68l3.37,0.2c2,0,4.08-0.19,6.21-0.56l0.44,2.25c-1.01,0.21-2.42,0.44-4.21,0.68
		c1.01,1.23,1.52,2.86,1.52,4.89c0,2.03-0.61,3.72-1.84,5.07c-1.23,1.35-3.01,2.04-5.33,2.06c-0.7,0-1.38-0.07-2.05-0.2
		c-0.43,0.93-0.64,1.71-0.64,2.32c0,0.91,0.71,1.36,2.12,1.36h3.69c1.93,0,3.42,0.43,4.49,1.3c1.07,0.87,1.61,2.07,1.61,3.59
		c0,2.17-0.86,3.9-2.59,5.21c-1.72,1.31-3.92,1.96-6.58,1.96c-2.66,0-4.69-0.45-6.08-1.36c-1.39-0.91-2.08-2.19-2.08-3.85
		c0-2.08,1.23-3.77,3.69-5.05c-0.69-0.56-1.04-1.39-1.04-2.48c0-1.1,0.52-2.31,1.57-3.65c-1.1-0.61-1.94-1.49-2.53-2.63
		c-0.59-1.14-0.88-2.41-0.88-3.83c0-2.17,0.6-3.92,1.81-5.27C74.73,341.35,76.5,340.68,78.86,340.68 M81.39,361.89h-4.93
		c-1.5,0.64-2.25,1.73-2.25,3.25c0,0.94,0.45,1.64,1.36,2.11c0.91,0.47,2.2,0.7,3.87,0.7c1.67,0,3-0.35,3.99-1.06
		c0.99-0.71,1.49-1.68,1.49-2.91c0-0.72-0.25-1.25-0.76-1.58C83.65,362.06,82.72,361.89,81.39,361.89 M78.98,343.44
		c-2.62,0-3.93,1.5-3.93,4.49s1.3,4.49,3.91,4.49c2.61,0,3.91-1.49,3.91-4.45c0-1.55-0.3-2.69-0.9-3.43
		C81.36,343.81,80.37,343.44,78.98,343.44"/>
	<path class="st0" d="M91.13,335.1c0-0.67,0.24-1.24,0.72-1.7c0.48-0.47,1.06-0.7,1.73-0.7c0.67,0,1.23,0.24,1.7,0.7
		c0.47,0.47,0.7,1.04,0.7,1.7c0,0.67-0.23,1.25-0.7,1.75c-0.47,0.49-1.04,0.74-1.7,0.74c-0.67,0-1.24-0.25-1.73-0.74
		C91.37,336.35,91.13,335.77,91.13,335.1 M95.5,361.37h-3.65v-20.13l3.65-0.36V361.37z"/>
	<path class="st0" d="M114.39,359.32c-1.55,1.71-3.58,2.56-6.09,2.56c-2.52,0-4.52-0.84-6.02-2.52c-1.5-1.68-2.25-4.36-2.25-8.04
		c0-3.68,0.78-6.37,2.35-8.08c1.56-1.71,3.6-2.57,6.12-2.57c2.51,0,4.51,0.84,5.99,2.53c1.49,1.68,2.23,4.37,2.23,8.04
		C116.71,354.92,115.94,357.61,114.39,359.32 M108.41,343.64c-3.13,0-4.69,2.55-4.69,7.64c0,5.09,1.55,7.64,4.65,7.64
		c1.28,0,2.38-0.6,3.29-1.8c0.91-1.2,1.36-3.21,1.36-6.02c0-2.81-0.39-4.75-1.18-5.83C111.05,344.18,109.91,343.64,108.41,343.64"/>
	<path class="st0" d="M145.5,341.36c0,2.49-1.03,4.28-3.09,5.37c1.71,0.64,2.92,1.5,3.63,2.59c0.71,1.08,1.06,2.49,1.06,4.23
		c0,2.43-0.74,4.34-2.21,5.73c-1.47,1.39-3.68,2.09-6.62,2.09h-8.14v-26.79h4.93c1.58,0,2.73,0.02,3.45,0.04
		C143.18,334.78,145.5,337.03,145.5,341.36 M133.99,337.47v8.02h3.93c1.18-0.08,2.09-0.49,2.73-1.22c0.64-0.73,0.96-1.6,0.96-2.61
		c0-1-0.1-1.74-0.3-2.23c-0.2-0.48-0.44-0.86-0.72-1.12c-0.28-0.27-0.7-0.47-1.26-0.6c-0.86-0.16-2.01-0.24-3.45-0.24H133.99z
		 M137.53,358.12c3.8,0,5.69-1.58,5.69-4.73c0-1.6-0.54-2.82-1.6-3.65c-0.86-0.85-2.38-1.28-4.57-1.28h-3.05v9.66H137.53z"/>
	<path class="st0" d="M150.88,335.1c0-0.67,0.24-1.24,0.72-1.7c0.48-0.47,1.06-0.7,1.72-0.7c0.67,0,1.24,0.24,1.7,0.7
		c0.47,0.47,0.7,1.04,0.7,1.7c0,0.67-0.23,1.25-0.7,1.75c-0.47,0.49-1.04,0.74-1.7,0.74c-0.67,0-1.24-0.25-1.72-0.74
		C151.12,336.35,150.88,335.77,150.88,335.1 M155.25,361.37h-3.65v-20.13l3.65-0.36V361.37z"/>
	<path class="st0" d="M160.7,333.3h3.65v23.98c0,1.04,0.48,1.57,1.44,1.57c0.75,0,1.54-0.13,2.37-0.4l0.6,2.65
		c-1.1,0.54-2.45,0.8-4.05,0.8c-2.68,0-4.01-1.52-4.01-4.57V333.3z"/>
	<path class="st0" d="M170.57,335.1c0-0.67,0.24-1.24,0.72-1.7c0.48-0.47,1.06-0.7,1.73-0.7c0.67,0,1.23,0.24,1.7,0.7
		c0.47,0.47,0.7,1.04,0.7,1.7c0,0.67-0.24,1.25-0.7,1.75c-0.47,0.49-1.04,0.74-1.7,0.74c-0.67,0-1.24-0.25-1.73-0.74
		C170.81,336.35,170.57,335.77,170.57,335.1 M174.95,361.37h-3.65v-20.13l3.65-0.36V361.37z"/>
	<path class="st0" d="M195.83,347.45v13.92h-3.61v-13.72c0-1.23-0.16-2.19-0.48-2.89c-0.32-0.7-0.97-1.04-1.94-1.04
		c-0.98,0-2.03,0.26-3.17,0.78c-1.14,0.52-2.03,1.16-2.67,1.9v14.96h-3.61v-20.29h3.01l0.4,2.45c0.75-0.72,1.76-1.38,3.03-1.97
		c1.27-0.59,2.49-0.88,3.67-0.88c2.01,0,3.4,0.6,4.19,1.78C195.44,343.65,195.83,345.32,195.83,347.45"/>
	<path class="st0" d="M207.54,340.68l3.37,0.2c2,0,4.08-0.19,6.21-0.56l0.44,2.25c-1.01,0.21-2.42,0.44-4.21,0.68
		c1.02,1.23,1.53,2.86,1.53,4.89c0,2.03-0.62,3.72-1.85,5.07c-1.23,1.35-3.01,2.04-5.33,2.06c-0.7,0-1.38-0.07-2.05-0.2
		c-0.43,0.93-0.64,1.71-0.64,2.32c0,0.91,0.71,1.36,2.12,1.36h3.69c1.93,0,3.42,0.43,4.49,1.3c1.07,0.87,1.61,2.07,1.61,3.59
		c0,2.17-0.86,3.9-2.59,5.21c-1.72,1.31-3.92,1.96-6.58,1.96c-2.66,0-4.69-0.45-6.08-1.36c-1.39-0.91-2.09-2.19-2.09-3.85
		c0-2.08,1.23-3.77,3.69-5.05c-0.69-0.56-1.04-1.39-1.04-2.48c0-1.1,0.52-2.31,1.57-3.65c-1.1-0.61-1.94-1.49-2.53-2.63
		c-0.59-1.14-0.88-2.41-0.88-3.83c0-2.17,0.6-3.92,1.8-5.27C203.41,341.35,205.19,340.68,207.54,340.68 M210.07,361.89h-4.93
		c-1.5,0.64-2.25,1.73-2.25,3.25c0,0.94,0.45,1.64,1.36,2.11c0.91,0.47,2.2,0.7,3.87,0.7c1.67,0,3-0.35,3.99-1.06
		c0.99-0.71,1.49-1.68,1.49-2.91c0-0.72-0.25-1.25-0.76-1.58C212.33,362.06,211.41,361.89,210.07,361.89 M207.66,343.44
		c-2.62,0-3.93,1.5-3.93,4.49s1.3,4.49,3.91,4.49c2.61,0,3.91-1.49,3.91-4.45c0-1.55-0.3-2.69-0.9-3.43
		C210.05,343.81,209.05,343.44,207.66,343.44"/>
	<path class="st0" d="M226.27,361.89c-2.19,0-3.71-0.59-4.57-1.78c-0.86-1.19-1.28-2.89-1.28-5.11v-13.91h3.61v13.83
		c0,1.34,0.18,2.32,0.52,2.95c0.35,0.63,1.05,0.94,2.1,0.94c1.06,0,2.09-0.17,3.09-0.5c1-0.33,1.82-0.8,2.47-1.38V341.2h3.61v20.53
		h-2.93l-0.4-2.17c-0.78,0.64-1.72,1.19-2.85,1.65C228.52,361.66,227.39,361.89,226.27,361.89 M223.46,333.66
		c0.43-0.43,0.95-0.64,1.57-0.64c0.61,0,1.14,0.21,1.56,0.62c0.43,0.42,0.64,0.93,0.64,1.54c0,0.62-0.21,1.15-0.64,1.6
		c-0.43,0.45-0.94,0.68-1.54,0.68c-0.6,0-1.12-0.23-1.57-0.68c-0.44-0.45-0.66-0.98-0.66-1.58
		C222.82,334.6,223.03,334.09,223.46,333.66 M230.08,333.66c0.43-0.43,0.95-0.64,1.56-0.64c0.61,0,1.14,0.21,1.56,0.62
		c0.43,0.42,0.64,0.93,0.64,1.54c0,0.62-0.22,1.15-0.64,1.6c-0.43,0.45-0.94,0.68-1.54,0.68c-0.6,0-1.12-0.23-1.56-0.68
		c-0.44-0.45-0.66-0.98-0.66-1.58C229.44,334.6,229.65,334.09,230.08,333.66"/>
	<path class="st0" d="M249.12,361.89c-2.99,0-5.22-1.02-6.68-3.07c-1.46-2.04-2.18-4.61-2.18-7.7c0-3.09,0.77-5.6,2.32-7.54
		c1.55-1.94,3.68-2.91,6.38-2.91c2.27,0,4,0.64,5.19,1.9c1.19,1.27,1.79,2.95,1.79,5.03c0,0.94-0.2,2.14-0.6,3.61h-11.79
		c0.06,2.27,0.55,4.12,1.49,5.53c0.94,1.42,2.33,2.12,4.19,2.12c1.86,0,3.62-0.37,5.28-1.12l0.92,2.49
		C253.5,361.34,251.4,361.89,249.12,361.89 M252.66,348.3c0-1.44-0.3-2.58-0.89-3.41c-0.59-0.83-1.4-1.24-2.44-1.24
		c-1.04,0-1.91,0.18-2.59,0.54c-0.68,0.36-1.21,0.82-1.58,1.38c-0.64,1.07-1.04,2.06-1.2,2.97l8.7,0.08V348.3z"/>
	<path class="st0" d="M15.11,417.3C5.04,417.3,0,411.22,0,399.05c0-6.29,1.28-10.89,3.85-13.79c2.57-2.9,6.11-4.35,10.62-4.35
		c2.38,0,5.02,0.4,7.92,1.21l-0.94,3.93c-2.34-0.52-4.41-0.79-6.19-0.79c-3.22,0-5.73,1.03-7.52,3.09c-1.8,2.06-2.7,5.56-2.7,10.49
		c0,9.44,3.69,14.16,11.07,14.16c1.78,0,3.7-0.21,5.77-0.63l0.68,3.93C19.79,416.97,17.31,417.3,15.11,417.3"/>
	<path class="st0" d="M27.17,382.27c0-0.87,0.31-1.62,0.94-2.23c0.63-0.61,1.38-0.92,2.25-0.92c0.87,0,1.62,0.31,2.23,0.92
		c0.61,0.61,0.92,1.36,0.92,2.23s-0.3,1.63-0.92,2.28c-0.61,0.65-1.36,0.97-2.23,0.97c-0.87,0-1.63-0.32-2.25-0.97
		C27.48,383.9,27.17,383.14,27.17,382.27 M32.89,416.62h-4.77v-26.33l4.77-0.47V416.62z"/>
	<path class="st0" d="M47.41,417.3c-2.87,0-4.86-0.78-5.98-2.33c-1.12-1.56-1.68-3.79-1.68-6.69v-18.2h4.72v18.1
		c0,1.75,0.23,3.03,0.68,3.86c0.45,0.82,1.37,1.23,2.75,1.23c1.38,0,2.73-0.22,4.04-0.66c1.31-0.44,2.38-1.04,3.22-1.81v-20.56h4.72
		v26.85h-3.83l-0.52-2.83c-1.01,0.84-2.25,1.56-3.72,2.15C50.35,417.01,48.88,417.3,47.41,417.3"/>
	<path class="st0" d="M65.82,403.88c0-9.54,3.83-14.32,11.49-14.32c1.92,0,3.6,0.4,5.04,1.21v-10.86h4.77v37.13h-3.73l-0.68-2.57
		c-2.2,1.75-4.76,2.62-7.68,2.62s-5.18-1.19-6.79-3.57C66.63,411.15,65.82,407.94,65.82,403.88 M77.25,393.49
		c-4.37,0-6.56,3.44-6.56,10.33c0,6.33,1.78,9.49,5.35,9.49c2.55,0,4.65-0.77,6.29-2.31v-16.57
		C80.87,393.81,79.18,393.49,77.25,393.49"/>
	<path class="st0" d="M99.86,417.31c-2.28,0-4.08-0.66-5.43-1.99c-1.35-1.33-2.02-3.11-2.02-5.35c0-1.47,0.31-2.71,0.94-3.72
		c0.63-1.01,1.45-1.76,2.46-2.26c1.82-0.87,3.72-1.31,5.72-1.31c1.99,0,3.84,0.09,5.56,0.26v-4.09c0-2.03-0.34-3.42-1.02-4.17
		c-0.68-0.75-1.99-1.13-3.91-1.13c-1.92,0-4.21,0.47-6.87,1.42l-1.1-3.31c1.02-0.63,2.35-1.14,4.01-1.52
		c1.66-0.38,3.1-0.58,4.33-0.58c3.39,0,5.79,0.73,7.19,2.2c1.4,1.47,2.1,3.93,2.1,7.39v12.75c0,1.23,0.42,1.84,1.26,1.84
		c0.56,0,1.33-0.16,2.31-0.47l0.79,2.94c-1.19,0.77-2.73,1.15-4.62,1.15c-1.89,0-3.25-0.89-4.09-2.67
		c-0.77,0.73-1.84,1.35-3.22,1.86C102.86,417.05,101.4,417.31,99.86,417.31 M100.86,413.58c2.2,0,4.28-0.63,6.24-1.89v-6.08
		c-0.84-0.14-2.21-0.21-4.09-0.21c-4.09,0-6.16,1.36-6.19,4.09C96.82,412.22,98.16,413.58,100.86,413.58"/>
	<path class="st0" d="M118.58,403.88c0-9.54,3.83-14.32,11.49-14.32c1.92,0,3.6,0.4,5.04,1.21v-10.86h4.77v37.13h-3.73l-0.68-2.57
		c-2.2,1.75-4.76,2.62-7.68,2.62s-5.18-1.19-6.79-3.57C119.39,411.15,118.58,407.94,118.58,403.88 M130.01,393.49
		c-4.37,0-6.56,3.44-6.56,10.33c0,6.33,1.78,9.49,5.35,9.49c2.55,0,4.65-0.77,6.29-2.31v-16.57
		C133.63,393.81,131.94,393.49,130.01,393.49"/>
	<polygon class="st0" points="159.02,381.59 167.52,410.86 176.01,381.59 181.47,381.59 170.19,416.62 164.84,416.62 153.57,381.59 
			"/>
	<path class="st0" d="M184.4,382.27c0-0.87,0.31-1.62,0.95-2.23c0.63-0.61,1.38-0.92,2.25-0.92c0.87,0,1.62,0.31,2.23,0.92
		c0.61,0.61,0.92,1.36,0.92,2.23s-0.3,1.63-0.92,2.28c-0.61,0.65-1.36,0.97-2.23,0.97c-0.87,0-1.63-0.32-2.25-0.97
		C184.72,383.9,184.4,383.14,184.4,382.27 M190.12,416.62h-4.77v-26.33l4.77-0.47V416.62z"/>
	<path class="st0" d="M207.53,417.3c-3.92,0-6.83-1.34-8.73-4.01c-1.91-2.67-2.86-6.03-2.86-10.07c0-4.04,1.01-7.32,3.04-9.86
		c2.03-2.53,4.81-3.8,8.34-3.8c2.97,0,5.24,0.83,6.79,2.49c1.56,1.66,2.33,3.86,2.33,6.58c0,1.22-0.26,2.8-0.79,4.72h-15.42
		c0.07,2.97,0.72,5.38,1.94,7.24c1.22,1.85,3.05,2.78,5.48,2.78c2.43,0,4.73-0.49,6.9-1.47l1.21,3.25
		C213.25,416.59,210.5,417.3,207.53,417.3 M212.15,399.53c0-1.89-0.39-3.37-1.16-4.46c-0.77-1.08-1.83-1.62-3.2-1.62
		c-1.36,0-2.49,0.24-3.38,0.71c-0.89,0.47-1.58,1.08-2.07,1.81c-0.84,1.4-1.36,2.69-1.57,3.88l11.38,0.11V399.53z"/>
	<path class="st0" d="M226.89,414.21c0,4.3-0.98,7.53-2.94,9.68c-1.96,2.15-4.82,3.4-8.6,3.75l-0.58-3.77
		c2.69-0.42,4.6-1.4,5.72-2.94c1.12-1.54,1.68-3.95,1.68-7.24v-23.39l4.72-0.47V414.21z M221.28,382.27c0-0.87,0.31-1.62,0.94-2.23
		c0.63-0.61,1.38-0.92,2.26-0.92c0.87,0,1.62,0.31,2.23,0.92c0.61,0.61,0.92,1.36,0.92,2.23c0,0.87-0.31,1.63-0.92,2.28
		c-0.61,0.65-1.35,0.97-2.23,0.97c-0.87,0-1.63-0.32-2.26-0.97C221.59,383.9,221.28,383.14,221.28,382.27"/>
	<path class="st0" d="M239.63,417.31c-2.28,0-4.08-0.66-5.43-1.99c-1.35-1.33-2.02-3.11-2.02-5.35c0-1.47,0.31-2.71,0.94-3.72
		c0.63-1.01,1.45-1.76,2.46-2.26c1.82-0.87,3.72-1.31,5.72-1.31c1.99,0,3.84,0.09,5.56,0.26v-4.09c0-2.03-0.34-3.42-1.02-4.17
		c-0.68-0.75-1.99-1.13-3.91-1.13c-1.92,0-4.21,0.47-6.87,1.42l-1.1-3.31c1.01-0.63,2.35-1.14,4.01-1.52
		c1.66-0.38,3.1-0.58,4.33-0.58c3.39,0,5.79,0.73,7.19,2.2c1.4,1.47,2.1,3.93,2.1,7.39v12.75c0,1.23,0.42,1.84,1.26,1.84
		c0.56,0,1.33-0.16,2.31-0.47l0.79,2.94c-1.19,0.77-2.73,1.15-4.62,1.15c-1.89,0-3.25-0.89-4.09-2.67
		c-0.77,0.73-1.84,1.35-3.22,1.86C242.63,417.05,241.17,417.31,239.63,417.31 M240.63,413.58c2.2,0,4.28-0.63,6.24-1.89v-6.08
		c-0.84-0.14-2.21-0.21-4.09-0.21c-4.09,0-6.16,1.36-6.19,4.09C236.59,412.22,237.93,413.58,240.63,413.58"/>
</g>
</svg>
